<?xml version="1.0" encoding="UTF-8"?>
<svg width="97px" height="114px" viewBox="0 0 97 114" version="1.1" xmlns="http://www.w3.org/2000/svg" xmlns:xlink="http://www.w3.org/1999/xlink">
    <!-- Generator: Sketch 64 (93537) - https://sketch.com -->
    <title>Group</title>
    <desc>Created with Sketch.</desc>
    <g id="Page-1" stroke="none" stroke-width="1" fill="none" fill-rule="evenodd">
        <g id="Group" transform="translate(4.000000, 4.000000)" fill="#FFC934">
            <polygon id="Path-3" points="35.8597963 38.6781964 80.7055618 53 33.4947096 105.371287 25.6054388 87.8753592"></polygon>
            <path d="M30.8051017,105.371287 C27.8078445,99.6200292 24.6202584,93.9076992 21.2423434,88.2342966 C17.8644283,82.560894 11.2425345,71.8193459 1.37666199,56.0096522 C-0.892646689,51.699996 -0.34120189,48.3298739 3.03099638,45.8992858 C6.40319465,43.4686977 9.77885006,44.0241945 13.1579626,47.5657763 L27.9509716,64.1391192 L27.9509716,9.11193606 C27.8654479,3.54117043 30.2651178,0.755787621 35.1499813,0.755787621 C40.0348447,0.755787621 42.4772764,3.54117043 42.4772764,9.11193606 L42.4772764,44.1373658" id="Path" stroke="#000000" stroke-width="8" stroke-linecap="round" stroke-linejoin="round"></path>
            <path d="M42.4772764,43.4847655 L42.4772764,33.8230725 C42.4772764,27.1950284 44.9902521,23.8810064 50.0162035,23.8810064 C55.0421549,23.8810064 57.5551306,27.1950284 57.5551306,33.8230725 L57.5551306,49.1644738" id="Path-2" stroke="#000000" stroke-width="8" stroke-linecap="round"></path>
            <path d="M58.0148206,49.1153343 L58.0148206,39.4536413 C58.0148206,32.8255972 60.5277963,29.5115752 65.5537477,29.5115752 C70.5796991,29.5115752 73.0926748,32.8255972 73.0926748,39.4536413 L73.0926748,54.7950426" id="Path-2" stroke="#000000" stroke-width="8" stroke-linecap="round"></path>
            <path d="M73.0148206,55.1153343 L73.0148206,45.4536413 C73.0148206,38.8255972 75.5277963,35.5115752 80.5537477,35.5115752 C85.5796991,35.5115752 88.0926748,38.8255972 88.0926748,45.4536413 C88.144448,56.6108945 88.144448,64.3788183 88.0926748,68.7574126 C88.0409017,73.1360069 85.4060004,85.3406316 80.187971,105.371287 L30.8051017,105.371287" id="Path-2" stroke="#000000" stroke-width="8" stroke-linecap="round" stroke-linejoin="round"></path>
        </g>
    </g>
</svg>